<!DOCTYPE svg PUBLIC "-//W3C//DTD SVG 1.1//EN" "http://www.w3.org/Graphics/SVG/1.1/DTD/svg11.dtd">
<!-- Uploaded to: SVG Repo, www.svgrepo.com, Transformed by: SVG Repo Mixer Tools -->
<svg fill="#ffdd00" width="800px" height="800px" viewBox="-30.72 -30.72 317.44 317.44" id="Flat" xmlns="http://www.w3.org/2000/svg" stroke="#ffdd00" stroke-width="0.00256">
<g id="SVGRepo_bgCarrier" stroke-width="0" transform="translate(32,32), scale(0.75)">
<path transform="translate(-30.72, -30.72), scale(19.84)" fill="#7ed0ec" d="M9.166.33a2.25 2.25 0 00-2.332 0l-5.25 3.182A2.25 2.25 0 00.5 5.436v5.128a2.25 2.25 0 001.084 1.924l5.25 3.182a2.25 2.25 0 002.332 0l5.25-3.182a2.25 2.25 0 001.084-1.924V5.436a2.25 2.25 0 00-1.084-1.924L9.166.33z" strokewidth="0"/>
</g>
<g id="SVGRepo_tracerCarrier" stroke-linecap="round" stroke-linejoin="round" stroke="#CCCCCC" stroke-width="0.512"/>
<g id="SVGRepo_iconCarrier"> <g opacity="0.2"> <circle cx="128" cy="128" r="96"/> </g> <path d="M128,24A104,104,0,1,0,232,128,104.11791,104.11791,0,0,0,128,24Zm0,192a88,88,0,1,1,88-88A88.09957,88.09957,0,0,1,128,216Zm40-68a28.03146,28.03146,0,0,1-28,28h-4v8a8,8,0,0,1-16,0v-8H104a8,8,0,0,1,0-16h36a12,12,0,0,0,0-24H116a28,28,0,0,1,0-56h4V72a8,8,0,0,1,16,0v8h16a8,8,0,0,1,0,16H116a12,12,0,0,0,0,24h24A28.03146,28.03146,0,0,1,168,148Z"/> </g>
</svg>